<mxfile host="app.diagrams.net" agent="Mozilla/5.0 (Macintosh; Intel Mac OS X 10_15_7) AppleWebKit/537.36 (KHTML, like Gecko) Chrome/129.0.0.0 Safari/537.36" version="24.7.17">
  <diagram name="第 1 页" id="e8v0tARPIj5isZH4Feat">
    <mxGraphModel dx="1026" dy="650" grid="1" gridSize="10" guides="1" tooltips="1" connect="1" arrows="1" fold="1" page="1" pageScale="1" pageWidth="827" pageHeight="1169" math="0" shadow="0">
      <root>
        <mxCell id="0" />
        <mxCell id="1" parent="0" />
        <mxCell id="gV67Do4MyYPFfWXHUoDw-1" value="标签下载" style="ellipse;whiteSpace=wrap;html=1;" vertex="1" parent="1">
          <mxGeometry x="330" y="130" width="80" height="50" as="geometry" />
        </mxCell>
        <mxCell id="gV67Do4MyYPFfWXHUoDw-4" value="" style="edgeStyle=orthogonalEdgeStyle;rounded=0;orthogonalLoop=1;jettySize=auto;html=1;" edge="1" parent="1" source="gV67Do4MyYPFfWXHUoDw-1" target="gV67Do4MyYPFfWXHUoDw-5">
          <mxGeometry relative="1" as="geometry">
            <mxPoint x="370" y="180" as="sourcePoint" />
            <mxPoint x="370" y="255" as="targetPoint" />
          </mxGeometry>
        </mxCell>
        <mxCell id="gV67Do4MyYPFfWXHUoDw-7" value="" style="edgeStyle=orthogonalEdgeStyle;rounded=0;orthogonalLoop=1;jettySize=auto;html=1;" edge="1" parent="1" source="gV67Do4MyYPFfWXHUoDw-5" target="gV67Do4MyYPFfWXHUoDw-6">
          <mxGeometry relative="1" as="geometry" />
        </mxCell>
        <mxCell id="gV67Do4MyYPFfWXHUoDw-9" value="为空" style="edgeLabel;html=1;align=center;verticalAlign=middle;resizable=0;points=[];" vertex="1" connectable="0" parent="gV67Do4MyYPFfWXHUoDw-7">
          <mxGeometry x="-0.2757" y="-1" relative="1" as="geometry">
            <mxPoint as="offset" />
          </mxGeometry>
        </mxCell>
        <mxCell id="gV67Do4MyYPFfWXHUoDw-11" value="" style="edgeStyle=orthogonalEdgeStyle;rounded=0;orthogonalLoop=1;jettySize=auto;html=1;" edge="1" parent="1" source="gV67Do4MyYPFfWXHUoDw-5" target="gV67Do4MyYPFfWXHUoDw-10">
          <mxGeometry relative="1" as="geometry" />
        </mxCell>
        <mxCell id="gV67Do4MyYPFfWXHUoDw-5" value="校验参数：&lt;div&gt;标签code，标签名是否为空&lt;/div&gt;" style="rhombus;whiteSpace=wrap;html=1;" vertex="1" parent="1">
          <mxGeometry x="297.5" y="220" width="145" height="80" as="geometry" />
        </mxCell>
        <mxCell id="gV67Do4MyYPFfWXHUoDw-6" value="返回参数不合格" style="whiteSpace=wrap;html=1;" vertex="1" parent="1">
          <mxGeometry x="85" y="230" width="120" height="60" as="geometry" />
        </mxCell>
        <mxCell id="gV67Do4MyYPFfWXHUoDw-14" value="" style="edgeStyle=orthogonalEdgeStyle;rounded=0;orthogonalLoop=1;jettySize=auto;html=1;" edge="1" parent="1" source="gV67Do4MyYPFfWXHUoDw-10" target="gV67Do4MyYPFfWXHUoDw-13">
          <mxGeometry relative="1" as="geometry" />
        </mxCell>
        <mxCell id="gV67Do4MyYPFfWXHUoDw-15" value="标签未查询到" style="edgeLabel;html=1;align=center;verticalAlign=middle;resizable=0;points=[];" vertex="1" connectable="0" parent="gV67Do4MyYPFfWXHUoDw-14">
          <mxGeometry x="-0.2" y="-2" relative="1" as="geometry">
            <mxPoint as="offset" />
          </mxGeometry>
        </mxCell>
        <mxCell id="gV67Do4MyYPFfWXHUoDw-17" value="" style="edgeStyle=orthogonalEdgeStyle;rounded=0;orthogonalLoop=1;jettySize=auto;html=1;" edge="1" parent="1" source="gV67Do4MyYPFfWXHUoDw-10" target="gV67Do4MyYPFfWXHUoDw-16">
          <mxGeometry relative="1" as="geometry" />
        </mxCell>
        <mxCell id="gV67Do4MyYPFfWXHUoDw-10" value="查询数据库对应标签基础信息" style="shape=process;whiteSpace=wrap;html=1;backgroundOutline=1;" vertex="1" parent="1">
          <mxGeometry x="310" y="340" width="120" height="60" as="geometry" />
        </mxCell>
        <mxCell id="gV67Do4MyYPFfWXHUoDw-12" value="此步骤查询标签值类型，最新数据日期等" style="text;html=1;align=center;verticalAlign=middle;whiteSpace=wrap;rounded=0;" vertex="1" parent="1">
          <mxGeometry x="460" y="355" width="190" height="30" as="geometry" />
        </mxCell>
        <mxCell id="gV67Do4MyYPFfWXHUoDw-13" value="返回标签不存在" style="whiteSpace=wrap;html=1;" vertex="1" parent="1">
          <mxGeometry x="85" y="340" width="120" height="60" as="geometry" />
        </mxCell>
        <mxCell id="gV67Do4MyYPFfWXHUoDw-19" value="" style="edgeStyle=orthogonalEdgeStyle;rounded=0;orthogonalLoop=1;jettySize=auto;html=1;" edge="1" parent="1" source="gV67Do4MyYPFfWXHUoDw-16" target="gV67Do4MyYPFfWXHUoDw-18">
          <mxGeometry relative="1" as="geometry" />
        </mxCell>
        <mxCell id="gV67Do4MyYPFfWXHUoDw-16" value="查询标签具体&lt;div&gt;码值信息&lt;/div&gt;" style="shape=process;whiteSpace=wrap;html=1;backgroundOutline=1;" vertex="1" parent="1">
          <mxGeometry x="310" y="440" width="120" height="60" as="geometry" />
        </mxCell>
        <mxCell id="gV67Do4MyYPFfWXHUoDw-18" value="写入csv返回文件流" style="whiteSpace=wrap;html=1;" vertex="1" parent="1">
          <mxGeometry x="310" y="540" width="120" height="60" as="geometry" />
        </mxCell>
      </root>
    </mxGraphModel>
  </diagram>
</mxfile>
